<mxfile host="app.diagrams.net" modified="2023-05-22T17:03:06.647Z" agent="Mozilla/5.0 (Windows NT 10.0; Win64; x64) AppleWebKit/537.36 (KHTML, like Gecko) Chrome/113.0.0.0 Safari/537.36" etag="IoRyDeO6oN9YCqThF6ur" version="21.3.2" type="device">
  <diagram name="Страница 1" id="dmASy3kXNDHobpzCn9cK">
    <mxGraphModel dx="1050" dy="573" grid="1" gridSize="10" guides="1" tooltips="1" connect="1" arrows="1" fold="1" page="1" pageScale="1" pageWidth="827" pageHeight="1169" math="0" shadow="0">
      <root>
        <mxCell id="0" />
        <mxCell id="1" parent="0" />
        <mxCell id="n7uOOFGeIY7_fSkv1_In-1" value="" style="triangle;whiteSpace=wrap;html=1;rotation=90;" vertex="1" parent="1">
          <mxGeometry x="453.75" y="231.25" width="40" height="47.5" as="geometry" />
        </mxCell>
        <mxCell id="n7uOOFGeIY7_fSkv1_In-2" value="&lt;font style=&quot;font-size: 14px;&quot;&gt;Последовательность&lt;/font&gt;" style="rounded=0;whiteSpace=wrap;html=1;" vertex="1" parent="1">
          <mxGeometry x="400" y="290" width="150" height="30" as="geometry" />
        </mxCell>
        <mxCell id="n7uOOFGeIY7_fSkv1_In-3" value="" style="endArrow=classic;html=1;rounded=0;exitX=1;exitY=0.5;exitDx=0;exitDy=0;entryX=0.5;entryY=0;entryDx=0;entryDy=0;" edge="1" parent="1" source="n7uOOFGeIY7_fSkv1_In-1" target="n7uOOFGeIY7_fSkv1_In-2">
          <mxGeometry width="50" height="50" relative="1" as="geometry">
            <mxPoint x="390" y="320" as="sourcePoint" />
            <mxPoint x="440" y="270" as="targetPoint" />
          </mxGeometry>
        </mxCell>
        <mxCell id="n7uOOFGeIY7_fSkv1_In-4" value="" style="ellipse;whiteSpace=wrap;html=1;aspect=fixed;" vertex="1" parent="1">
          <mxGeometry x="170" y="318.75" width="30" height="30" as="geometry" />
        </mxCell>
        <mxCell id="n7uOOFGeIY7_fSkv1_In-5" value="&lt;font style=&quot;font-size: 14px;&quot;&gt;Выбор юнита &lt;br&gt;для разведки&lt;/font&gt;" style="text;html=1;align=center;verticalAlign=middle;resizable=0;points=[];autosize=1;strokeColor=none;fillColor=none;" vertex="1" parent="1">
          <mxGeometry x="130" y="338.75" width="110" height="50" as="geometry" />
        </mxCell>
        <mxCell id="n7uOOFGeIY7_fSkv1_In-6" value="" style="shape=hexagon;perimeter=hexagonPerimeter2;whiteSpace=wrap;html=1;fixedSize=1;" vertex="1" parent="1">
          <mxGeometry x="246.25" y="370" width="52.5" height="20" as="geometry" />
        </mxCell>
        <mxCell id="n7uOOFGeIY7_fSkv1_In-8" value="&lt;span style=&quot;font-size: 14px;&quot;&gt;Существуют &lt;br&gt;неразведанные &lt;br&gt;области?&lt;/span&gt;" style="text;html=1;align=center;verticalAlign=middle;resizable=0;points=[];autosize=1;strokeColor=none;fillColor=none;" vertex="1" parent="1">
          <mxGeometry x="210" y="390" width="120" height="60" as="geometry" />
        </mxCell>
        <mxCell id="n7uOOFGeIY7_fSkv1_In-9" value="&lt;font style=&quot;font-size: 14px;&quot;&gt;Селектор&lt;/font&gt;" style="rounded=1;whiteSpace=wrap;html=1;" vertex="1" parent="1">
          <mxGeometry x="380" y="370" width="70" height="20" as="geometry" />
        </mxCell>
        <mxCell id="n7uOOFGeIY7_fSkv1_In-10" value="" style="shape=hexagon;perimeter=hexagonPerimeter2;whiteSpace=wrap;html=1;fixedSize=1;" vertex="1" parent="1">
          <mxGeometry x="337.5" y="420" width="52.5" height="20" as="geometry" />
        </mxCell>
        <mxCell id="n7uOOFGeIY7_fSkv1_In-11" value="&lt;span style=&quot;font-size: 14px;&quot;&gt;Юнит отправлен&lt;br&gt;&amp;nbsp;на разведку?&lt;/span&gt;" style="text;html=1;align=center;verticalAlign=middle;resizable=0;points=[];autosize=1;strokeColor=none;fillColor=none;" vertex="1" parent="1">
          <mxGeometry x="298.75" y="430" width="130" height="50" as="geometry" />
        </mxCell>
        <mxCell id="n7uOOFGeIY7_fSkv1_In-14" value="" style="ellipse;whiteSpace=wrap;html=1;aspect=fixed;" vertex="1" parent="1">
          <mxGeometry x="445.63" y="410" width="30" height="30" as="geometry" />
        </mxCell>
        <mxCell id="n7uOOFGeIY7_fSkv1_In-15" value="&lt;span style=&quot;font-size: 14px;&quot;&gt;Отправить &lt;br&gt;юнита &lt;br&gt;на разведку&lt;/span&gt;" style="text;html=1;align=center;verticalAlign=middle;resizable=0;points=[];autosize=1;strokeColor=none;fillColor=none;" vertex="1" parent="1">
          <mxGeometry x="410.63" y="440" width="100" height="60" as="geometry" />
        </mxCell>
        <mxCell id="n7uOOFGeIY7_fSkv1_In-16" value="&lt;font style=&quot;font-size: 14px;&quot;&gt;Последовательность&lt;/font&gt;" style="rounded=0;whiteSpace=wrap;html=1;" vertex="1" parent="1">
          <mxGeometry x="490" y="370" width="180" height="20" as="geometry" />
        </mxCell>
        <mxCell id="n7uOOFGeIY7_fSkv1_In-17" value="" style="shape=hexagon;perimeter=hexagonPerimeter2;whiteSpace=wrap;html=1;fixedSize=1;" vertex="1" parent="1">
          <mxGeometry x="517.5" y="420" width="52.5" height="20" as="geometry" />
        </mxCell>
        <mxCell id="n7uOOFGeIY7_fSkv1_In-18" value="&lt;span style=&quot;font-size: 14px;&quot;&gt;Юниту &lt;br&gt;угрожает &lt;br&gt;опасность?&lt;/span&gt;" style="text;html=1;align=center;verticalAlign=middle;resizable=0;points=[];autosize=1;strokeColor=none;fillColor=none;" vertex="1" parent="1">
          <mxGeometry x="493.75" y="440" width="100" height="60" as="geometry" />
        </mxCell>
        <mxCell id="n7uOOFGeIY7_fSkv1_In-19" value="" style="ellipse;whiteSpace=wrap;html=1;aspect=fixed;" vertex="1" parent="1">
          <mxGeometry x="613.75" y="410" width="30" height="30" as="geometry" />
        </mxCell>
        <mxCell id="n7uOOFGeIY7_fSkv1_In-20" value="&lt;span style=&quot;font-size: 14px;&quot;&gt;Отправить &lt;br&gt;юнита &lt;br&gt;на базу&lt;/span&gt;" style="text;html=1;align=center;verticalAlign=middle;resizable=0;points=[];autosize=1;strokeColor=none;fillColor=none;" vertex="1" parent="1">
          <mxGeometry x="583.75" y="440" width="90" height="60" as="geometry" />
        </mxCell>
        <mxCell id="n7uOOFGeIY7_fSkv1_In-22" value="" style="ellipse;whiteSpace=wrap;html=1;aspect=fixed;" vertex="1" parent="1">
          <mxGeometry x="748.75" y="325" width="30" height="30" as="geometry" />
        </mxCell>
        <mxCell id="n7uOOFGeIY7_fSkv1_In-23" value="&lt;span style=&quot;font-size: 14px;&quot;&gt;Сохранить информацию &lt;br&gt;о вражеских &lt;br&gt;зданиях в поле &lt;br&gt;видимости разведчика&lt;/span&gt;" style="text;html=1;align=center;verticalAlign=middle;resizable=0;points=[];autosize=1;strokeColor=none;fillColor=none;" vertex="1" parent="1">
          <mxGeometry x="673.75" y="355" width="180" height="80" as="geometry" />
        </mxCell>
        <mxCell id="n7uOOFGeIY7_fSkv1_In-24" value="" style="endArrow=classic;html=1;rounded=0;exitX=0.5;exitY=1;exitDx=0;exitDy=0;entryX=0.5;entryY=0;entryDx=0;entryDy=0;" edge="1" parent="1" source="n7uOOFGeIY7_fSkv1_In-2" target="n7uOOFGeIY7_fSkv1_In-4">
          <mxGeometry width="50" height="50" relative="1" as="geometry">
            <mxPoint x="490" y="350" as="sourcePoint" />
            <mxPoint x="540" y="300" as="targetPoint" />
          </mxGeometry>
        </mxCell>
        <mxCell id="n7uOOFGeIY7_fSkv1_In-25" value="" style="endArrow=classic;html=1;rounded=0;exitX=0.5;exitY=1;exitDx=0;exitDy=0;entryX=0.5;entryY=0;entryDx=0;entryDy=0;" edge="1" parent="1" source="n7uOOFGeIY7_fSkv1_In-2" target="n7uOOFGeIY7_fSkv1_In-6">
          <mxGeometry width="50" height="50" relative="1" as="geometry">
            <mxPoint x="490" y="350" as="sourcePoint" />
            <mxPoint x="540" y="300" as="targetPoint" />
          </mxGeometry>
        </mxCell>
        <mxCell id="n7uOOFGeIY7_fSkv1_In-26" value="" style="endArrow=classic;html=1;rounded=0;exitX=0.5;exitY=1;exitDx=0;exitDy=0;entryX=0.5;entryY=0;entryDx=0;entryDy=0;" edge="1" parent="1" source="n7uOOFGeIY7_fSkv1_In-2" target="n7uOOFGeIY7_fSkv1_In-9">
          <mxGeometry width="50" height="50" relative="1" as="geometry">
            <mxPoint x="490" y="350" as="sourcePoint" />
            <mxPoint x="540" y="300" as="targetPoint" />
          </mxGeometry>
        </mxCell>
        <mxCell id="n7uOOFGeIY7_fSkv1_In-27" value="" style="endArrow=classic;html=1;rounded=0;exitX=0.5;exitY=1;exitDx=0;exitDy=0;entryX=0.5;entryY=0;entryDx=0;entryDy=0;" edge="1" parent="1" source="n7uOOFGeIY7_fSkv1_In-9" target="n7uOOFGeIY7_fSkv1_In-10">
          <mxGeometry width="50" height="50" relative="1" as="geometry">
            <mxPoint x="490" y="350" as="sourcePoint" />
            <mxPoint x="540" y="300" as="targetPoint" />
          </mxGeometry>
        </mxCell>
        <mxCell id="n7uOOFGeIY7_fSkv1_In-28" value="" style="endArrow=classic;html=1;rounded=0;exitX=0.5;exitY=1;exitDx=0;exitDy=0;entryX=0.5;entryY=0;entryDx=0;entryDy=0;" edge="1" parent="1" source="n7uOOFGeIY7_fSkv1_In-9" target="n7uOOFGeIY7_fSkv1_In-14">
          <mxGeometry width="50" height="50" relative="1" as="geometry">
            <mxPoint x="570" y="390" as="sourcePoint" />
            <mxPoint x="540" y="300" as="targetPoint" />
          </mxGeometry>
        </mxCell>
        <mxCell id="n7uOOFGeIY7_fSkv1_In-29" value="" style="endArrow=classic;html=1;rounded=0;exitX=0.5;exitY=1;exitDx=0;exitDy=0;entryX=0.5;entryY=0;entryDx=0;entryDy=0;" edge="1" parent="1" source="n7uOOFGeIY7_fSkv1_In-2" target="n7uOOFGeIY7_fSkv1_In-16">
          <mxGeometry width="50" height="50" relative="1" as="geometry">
            <mxPoint x="490" y="350" as="sourcePoint" />
            <mxPoint x="540" y="300" as="targetPoint" />
          </mxGeometry>
        </mxCell>
        <mxCell id="n7uOOFGeIY7_fSkv1_In-30" value="" style="endArrow=classic;html=1;rounded=0;exitX=0.5;exitY=1;exitDx=0;exitDy=0;entryX=0.5;entryY=0;entryDx=0;entryDy=0;" edge="1" parent="1" source="n7uOOFGeIY7_fSkv1_In-16" target="n7uOOFGeIY7_fSkv1_In-17">
          <mxGeometry width="50" height="50" relative="1" as="geometry">
            <mxPoint x="490" y="350" as="sourcePoint" />
            <mxPoint x="540" y="300" as="targetPoint" />
          </mxGeometry>
        </mxCell>
        <mxCell id="n7uOOFGeIY7_fSkv1_In-31" value="" style="endArrow=classic;html=1;rounded=0;exitX=0.5;exitY=1;exitDx=0;exitDy=0;entryX=0.5;entryY=0;entryDx=0;entryDy=0;" edge="1" parent="1" source="n7uOOFGeIY7_fSkv1_In-16" target="n7uOOFGeIY7_fSkv1_In-19">
          <mxGeometry width="50" height="50" relative="1" as="geometry">
            <mxPoint x="490" y="350" as="sourcePoint" />
            <mxPoint x="540" y="300" as="targetPoint" />
          </mxGeometry>
        </mxCell>
        <mxCell id="n7uOOFGeIY7_fSkv1_In-33" value="" style="endArrow=classic;html=1;rounded=0;exitX=0.5;exitY=1;exitDx=0;exitDy=0;entryX=0.5;entryY=0;entryDx=0;entryDy=0;" edge="1" parent="1" source="n7uOOFGeIY7_fSkv1_In-2" target="n7uOOFGeIY7_fSkv1_In-22">
          <mxGeometry width="50" height="50" relative="1" as="geometry">
            <mxPoint x="490" y="350" as="sourcePoint" />
            <mxPoint x="540" y="300" as="targetPoint" />
          </mxGeometry>
        </mxCell>
      </root>
    </mxGraphModel>
  </diagram>
</mxfile>
